<svg width="88" height="88" viewBox="0 0 88 88" fill="none" xmlns="http://www.w3.org/2000/svg">
<g clip-path="url(#clip0_9_5)">
<rect width="88" height="88" fill="white"/>
<rect x="44" y="4.24264" width="56.2254" height="56.2254" transform="rotate(45 44 4.24264)" stroke="black" stroke-width="6"/>
<path d="M47.9375 55.2188H40.8438C40.6146 55.2188 40.5 55.1354 40.5 54.9688V51.5C40.5 49.7917 40.8958 48.0833 41.6875 46.375C42.4792 44.6458 43.5625 43.0938 44.9375 41.7188C45.5833 41.0729 46.1354 40.5104 46.5938 40.0312C47.0729 39.5312 47.4583 39.1042 47.75 38.75C48.3542 38.0417 48.7396 37.3958 48.9062 36.8125C49.0729 36.2083 49.1562 35.5 49.1562 34.6875C49.1562 33.1875 48.7083 31.9375 47.8125 30.9375C46.9167 29.9375 45.7812 29.4375 44.4062 29.4375C43.0521 29.4375 41.9167 29.9375 41 30.9375C40.0833 31.9375 39.625 33.1875 39.625 34.6875V39.3438C39.625 39.5104 39.5417 39.5938 39.375 39.5938H32.125C31.9583 39.5938 31.875 39.5104 31.875 39.3438V34.6875C31.875 32.2917 32.4479 30.1146 33.5938 28.1562C34.7188 26.1979 36.2292 24.6458 38.125 23.5C40.0208 22.3333 42.1146 21.75 44.4062 21.75C46.7188 21.75 48.8229 22.3229 50.7188 23.4688C52.6146 24.6146 54.1146 26.1771 55.2188 28.1562C56.3438 30.1146 56.9062 32.2917 56.9062 34.6875C56.9062 36.0417 56.7604 37.2812 56.4688 38.4062C56.1562 39.4896 55.5938 40.625 54.7812 41.8125C53.9688 42.9792 52.7708 44.4375 51.1875 46.1875C50.125 47.2708 49.3646 48.2396 48.9062 49.0938C48.4688 49.9479 48.25 50.8854 48.25 51.9062V54.9688C48.25 55.1354 48.1458 55.2188 47.9375 55.2188ZM47.9375 67H40.8438C40.6146 67 40.5 66.8958 40.5 66.6875V59.5625C40.5 59.3958 40.6146 59.3125 40.8438 59.3125H47.9375C48.1458 59.3125 48.25 59.3958 48.25 59.5625V66.6875C48.25 66.8958 48.1458 67 47.9375 67Z" fill="black"/>
</g>
<defs>
<clipPath id="clip0_9_5">
<rect width="88" height="88" fill="white"/>
</clipPath>
</defs>
</svg>
